<?xml version="1.0" encoding="iso-8859-1"?>
<!-- Uploaded to: SVG Repo, www.svgrepo.com, Generator: SVG Repo Mixer Tools -->
<svg fill="#000000" height="800px" width="800px" version="1.1" id="Layer_1" xmlns="http://www.w3.org/2000/svg" xmlns:xlink="http://www.w3.org/1999/xlink" 
	 viewBox="0 0 503.607 503.607" xml:space="preserve">
<g>
	<g>
		<path d="M358.82,98.203l1.679-2.518c1.679-4.197,6.715-8.393,15.108-12.59c15.948-7.554,23.502-26.859,16.787-43.646
			c-5.875-14.269-18.466-22.662-32.734-22.662h-11.751c-1.679,0-3.357,0-5.036-0.839c-4.197-1.679-9.233-2.518-13.43-4.197
			l-2.518,7.554c-8.393,22.662-40.289,39.449-75.541,39.449s-67.148-16.787-74.702-39.449l-2.518-7.554
			c-4.197,1.679-9.233,2.518-13.43,4.197c-2.518,0.839-4.197,0.839-5.875,0.839h-11.751c-14.269,0-26.859,8.393-31.895,21.823
			c-6.715,16.787,0.839,36.092,16.787,43.646c7.554,4.197,12.59,8.393,15.108,12.59l1.679,2.518
			c6.715,15.948,25.18,57.075,31.895,88.131v31.056c-1.679,6.715-5.875,14.269-11.751,24.341
			c-15.948,26.859-39.449,68.826-39.449,145.207c0,7.554,0,77.22,15.948,98.203c9.233,12.59,31.895,16.787,57.915,18.466
			l-5.875-12.59c-8.393-20.144-16.787-94.846-17.626-103.239V386.1c0-76.38,15.108-116.669,25.18-143.528
			c2.518-5.875,4.197-10.911,5.036-15.948h17.626c-1.679,6.715-4.197,13.43-7.554,20.984c-9.233,26.02-23.502,64.63-23.502,137.652
			c2.518,22.662,10.072,83.095,15.948,98.203l9.233,20.144c8.393,0,16.787,0,25.18,0c6.715,0,10.072,0,16.787,0
			c5.875,0,11.751,0,17.626,0c2.518,0,5.875,0,8.393,0l8.393-20.144c5.875-15.108,13.43-75.541,15.948-98.203
			c0-73.023-14.269-111.633-23.502-137.652c-2.518-7.554-5.036-14.269-6.715-20.984h17.626c1.679,4.197,3.357,9.233,5.036,15.108
			c10.072,26.859,25.18,67.987,25.18,143.528v0.839c-0.839,8.393-9.233,83.095-17.626,103.239l-5.036,13.43
			c26.02-1.679,48.682-6.715,57.075-18.466c15.108-20.984,15.108-90.649,15.108-98.203c0-76.38-23.502-117.508-38.61-145.207
			c-5.036-9.233-10.072-17.626-11.751-24.341v-31.056C333.639,154.439,352.105,113.311,358.82,98.203z M226.204,209.836h-0.001
			H192.63v-16.787h33.574V209.836z M259.777,218.229H242.99v-33.574h16.787V218.229z M310.138,209.836h-33.574v-16.787h33.574
			V209.836z"/>
	</g>
</g>
<g>
	<g>
		<path d="M251.384,0c-19.305,0-39.449,2.518-61.272,7.554l2.518,6.715c4.197,13.43,27.698,27.698,58.754,27.698
			c31.056,0,54.557-14.269,59.593-27.698l2.518-6.715C290.833,2.518,270.689,0,251.384,0z"/>
	</g>
</g>
</svg>